<?xml version="1.0" encoding="UTF-8" standalone="no"?>
<!-- Created with Inkscape (http://www.inkscape.org/) -->

<svg
   width="91.720879mm"
   height="78.690048mm"
   viewBox="0 0 91.720879 78.690048"
   version="1.1"
   id="svg1"
   xmlns:inkscape="http://www.inkscape.org/namespaces/inkscape"
   xmlns:sodipodi="http://sodipodi.sourceforge.net/DTD/sodipodi-0.dtd"
   xmlns="http://www.w3.org/2000/svg"
   xmlns:svg="http://www.w3.org/2000/svg">
  <sodipodi:namedview
     id="namedview1"
     pagecolor="#ffffff"
     bordercolor="#000000"
     borderopacity="0.25"
     inkscape:showpageshadow="2"
     inkscape:pageopacity="0.0"
     inkscape:pagecheckerboard="0"
     inkscape:deskcolor="#d1d1d1"
     inkscape:document-units="mm" />
  <defs
     id="defs1" />
  <g
     inkscape:label="Layer 1"
     inkscape:groupmode="layer"
     id="layer1"
     transform="translate(-4.3448286,-8.9396563)">
    <rect
       style="fill:#ffffff;stroke:#000000;stroke-width:0.809008;stroke-dasharray:none;stroke-opacity:1"
       id="rect6"
       width="90.911865"
       height="62.12661"
       x="4.7493329"
       y="9.3441601" />
    <rect
       style="fill:#ffffff;stroke:#000000;stroke-width:0.8;stroke-dasharray:none;stroke-opacity:1"
       id="rect6-02"
       width="10.469069"
       height="12.167406"
       x="45.559868"
       y="71.452019" />
    <rect
       style="fill:#ffffff;stroke:#000000;stroke-width:0.8;stroke-dasharray:none;stroke-opacity:1"
       id="rect6-02-6"
       width="35.886101"
       height="3.6606932"
       x="32.867168"
       y="83.569008" />
    <rect
       style="fill:#ffffff;stroke:#000000;stroke-width:0.725802;stroke-dasharray:none;stroke-opacity:1"
       id="rect6-7"
       width="84.237968"
       height="53.966152"
       x="8.0368176"
       y="13.286904" />
    <rect
       style="fill:#ffffff;stroke:#000000;stroke-width:0.269761;stroke-dasharray:none;stroke-opacity:1"
       id="rect6-0"
       width="18.609556"
       height="33.745461"
       x="11.226253"
       y="16.374727" />
    <rect
       style="fill:#ffffff;stroke:#000000;stroke-width:0.26;stroke-dasharray:none;stroke-opacity:1"
       id="rect6-0-2"
       width="24.050909"
       height="48.917038"
       x="66.299927"
       y="16.396631" />
    <rect
       style="fill:#ffffff;stroke:#000000;stroke-width:0.286551;stroke-dasharray:none;stroke-opacity:1"
       id="rect6-0-7"
       width="53.189125"
       height="13.322224"
       x="11.221572"
       y="51.992886" />
    <rect
       style="fill:#ffffff;stroke:#000000;stroke-width:0.260962;stroke-dasharray:none;stroke-opacity:1"
       id="rect6-0-6-2"
       width="32.2677"
       height="18.212927"
       x="32.210121"
       y="16.495415" />
    <rect
       style="fill:#ffffff;stroke:#000000;stroke-width:0.22717;stroke-dasharray:none;stroke-opacity:1"
       id="rect6-0-6-2-4"
       width="32.301491"
       height="13.787032"
       x="32.132195"
       y="36.332321" />
    <path
       style="fill:#ffffff;stroke:#000000;stroke-width:0.251586;stroke-dasharray:none;stroke-opacity:1"
       id="path9"
       sodipodi:type="arc"
       sodipodi:cx="20.691196"
       sodipodi:cy="25.270494"
       sodipodi:rx="6.374207"
       sodipodi:ry="6.374207"
       sodipodi:start="0"
       sodipodi:end="6.2816432"
       sodipodi:open="true"
       sodipodi:arc-type="arc"
       d="m 27.065403,25.270494 a 6.374207,6.374207 0 0 1 -6.371749,6.374207 6.374207,6.374207 0 0 1 -6.376663,-6.369292 6.374207,6.374207 0 0 1 6.366833,-6.379117 6.374207,6.374207 0 0 1 6.381572,6.364373" />
    <path
       style="fill:#ffffff;stroke:#000000;stroke-width:0.3;stroke-dasharray:none;stroke-opacity:1"
       id="path9-3"
       sodipodi:type="arc"
       sodipodi:cx="78.537933"
       sodipodi:cy="29.276836"
       sodipodi:rx="9.8064728"
       sodipodi:ry="9.8064718"
       sodipodi:start="0"
       sodipodi:end="6.2816432"
       sodipodi:open="true"
       sodipodi:arc-type="arc"
       d="m 88.344406,29.276836 a 9.8064728,9.8064718 0 0 1 -9.802692,9.806471 9.8064728,9.8064718 0 0 1 -9.810251,-9.798909 9.8064728,9.8064718 0 0 1 9.795128,-9.814027 9.8064728,9.8064718 0 0 1 9.817803,9.791343" />
    <path
       style="fill:#ffffff;stroke:#000000;stroke-width:0.193528;stroke-dasharray:none;stroke-opacity:1"
       id="path9-3-8-4"
       sodipodi:type="arc"
       sodipodi:cx="18.313349"
       sodipodi:cy="58.880764"
       sodipodi:rx="4.9032359"
       sodipodi:ry="4.9032359"
       sodipodi:start="0"
       sodipodi:end="6.2816432"
       sodipodi:open="true"
       sodipodi:arc-type="arc"
       d="m 23.216585,58.880764 a 4.9032359,4.9032359 0 0 1 -4.901346,4.903236 4.9032359,4.9032359 0 0 1 -4.905125,-4.899455 4.9032359,4.9032359 0 0 1 4.897564,-4.907014 4.9032359,4.9032359 0 0 1 4.908901,4.895672" />
    <path
       style="fill:#ffffff;stroke:#000000;stroke-width:0.193528;stroke-dasharray:none;stroke-opacity:1"
       id="path9-3-8-3"
       sodipodi:type="arc"
       sodipodi:cx="31.744045"
       sodipodi:cy="59.043407"
       sodipodi:rx="4.9032359"
       sodipodi:ry="4.9032359"
       sodipodi:start="0"
       sodipodi:end="6.2816432"
       sodipodi:open="true"
       sodipodi:arc-type="arc"
       d="m 36.647281,59.043407 a 4.9032359,4.9032359 0 0 1 -4.901345,4.903236 4.9032359,4.9032359 0 0 1 -4.905125,-4.899455 4.9032359,4.9032359 0 0 1 4.897563,-4.907013 4.9032359,4.9032359 0 0 1 4.908901,4.895671" />
    <path
       style="fill:#ffffff;stroke:#000000;stroke-width:0.193528;stroke-dasharray:none;stroke-opacity:1"
       id="path9-3-8-3-3"
       sodipodi:type="arc"
       sodipodi:cx="44.615067"
       sodipodi:cy="59.087337"
       sodipodi:rx="4.9032359"
       sodipodi:ry="4.9032359"
       sodipodi:start="0"
       sodipodi:end="6.2816432"
       sodipodi:open="true"
       sodipodi:arc-type="arc"
       d="m 49.518302,59.087337 a 4.9032359,4.9032359 0 0 1 -4.901345,4.903236 4.9032359,4.9032359 0 0 1 -4.905125,-4.899455 4.9032359,4.9032359 0 0 1 4.897564,-4.907013 4.9032359,4.9032359 0 0 1 4.908901,4.895671" />
    <path
       style="fill:#ffffff;stroke:#000000;stroke-width:0.193528;stroke-dasharray:none;stroke-opacity:1"
       id="path9-3-8-3-3-2"
       sodipodi:type="arc"
       sodipodi:cx="57.556843"
       sodipodi:cy="58.992107"
       sodipodi:rx="4.9032359"
       sodipodi:ry="4.9032359"
       sodipodi:start="0"
       sodipodi:end="6.2816432"
       sodipodi:open="true"
       sodipodi:arc-type="arc"
       d="m 62.460079,58.992107 a 4.9032359,4.9032359 0 0 1 -4.901346,4.903236 4.9032359,4.9032359 0 0 1 -4.905125,-4.899455 4.9032359,4.9032359 0 0 1 4.897564,-4.907013 4.9032359,4.9032359 0 0 1 4.908901,4.895671" />
    <rect
       style="fill:#000000;stroke:#000000;stroke-width:0.1;stroke-dasharray:none;stroke-opacity:1"
       id="rect9"
       width="10.00051"
       height="0.27028406"
       x="15.541333"
       y="35.947781" />
    <rect
       style="fill:#000000;stroke:#000000;stroke-width:0.1;stroke-dasharray:none;stroke-opacity:1"
       id="rect9-5"
       width="10.00051"
       height="0.27028406"
       x="15.732851"
       y="42.632492" />
    <rect
       style="fill:#000000;stroke:#000000;stroke-width:0.124376;stroke-dasharray:none;stroke-opacity:1"
       id="rect9-5-3"
       width="17.003521"
       height="0.24590853"
       x="70.271332"
       y="42.918991" />
    <rect
       style="fill:#000000;stroke:#000000;stroke-width:0.124376;stroke-dasharray:none;stroke-opacity:1"
       id="rect9-5-3-0"
       width="17.003521"
       height="0.24590853"
       x="70.355843"
       y="46.438377" />
    <rect
       style="fill:#000000;stroke:#000000;stroke-width:0.124376;stroke-dasharray:none;stroke-opacity:1"
       id="rect9-5-3-0-8"
       width="17.003521"
       height="0.24590853"
       x="70.281731"
       y="50.41283" />
    <rect
       style="fill:#000000;stroke:#000000;stroke-width:0.124376;stroke-dasharray:none;stroke-opacity:1"
       id="rect9-5-3-0-8-5"
       width="17.003521"
       height="0.24590853"
       x="70.28775"
       y="54.392986" />
    <rect
       style="fill:#000000;stroke:#000000;stroke-width:0.124376;stroke-dasharray:none;stroke-opacity:1"
       id="rect9-5-3-0-8-5-9"
       width="17.003521"
       height="0.24590853"
       x="70.356979"
       y="58.232292" />
    <rect
       style="fill:#000000;stroke:#000000;stroke-width:0.124376;stroke-dasharray:none;stroke-opacity:1"
       id="rect9-5-3-0-8-5-9-2"
       width="17.003521"
       height="0.24590853"
       x="70.388374"
       y="61.864025" />
    <rect
       style="fill:#000000;stroke:#000000;stroke-width:0.146452;stroke-dasharray:none;stroke-opacity:1"
       id="rect9-21"
       width="25.900818"
       height="0.22383173"
       x="35.156174"
       y="20.223814" />
    <rect
       style="fill:#000000;stroke:#000000;stroke-width:0.146452;stroke-dasharray:none;stroke-opacity:1"
       id="rect9-21-9"
       width="25.900818"
       height="0.22383173"
       x="35.121967"
       y="22.872999" />
    <rect
       style="fill:#000000;stroke:#000000;stroke-width:0.146452;stroke-dasharray:none;stroke-opacity:1"
       id="rect9-21-9-9"
       width="25.900818"
       height="0.22383173"
       x="35.209728"
       y="28.39139" />
    <rect
       style="fill:#000000;stroke:#000000;stroke-width:0.146452;stroke-dasharray:none;stroke-opacity:1"
       id="rect9-21-9-9-5"
       width="25.900818"
       height="0.22383173"
       x="35.015022"
       y="31.158466" />
    <rect
       style="fill:#000000;stroke:#000000;stroke-width:0.146452;stroke-dasharray:none;stroke-opacity:1"
       id="rect9-21-9-9-5-7"
       width="25.900818"
       height="0.22383173"
       x="35.271698"
       y="38.843288" />
    <rect
       style="fill:#000000;stroke:#000000;stroke-width:0.146452;stroke-dasharray:none;stroke-opacity:1"
       id="rect9-21-9-9-5-7-9"
       width="25.900818"
       height="0.22383173"
       x="35.467136"
       y="42.208263" />
    <rect
       style="fill:#000000;stroke:#000000;stroke-width:0.146452;stroke-dasharray:none;stroke-opacity:1"
       id="rect9-21-9-9-5-7-9-2"
       width="25.900818"
       height="0.22383173"
       x="35.437866"
       y="46.17041" />
    <rect
       style="fill:#000000;stroke:#000000;stroke-width:0.146452;stroke-dasharray:none;stroke-opacity:1"
       id="rect9-21-9-5"
       width="25.900818"
       height="0.22383173"
       x="35.209728"
       y="25.572374" />
    <rect
       style="fill:#000000;stroke:#000000;stroke-width:0.1;stroke-dasharray:none;stroke-opacity:1"
       id="rect9-2"
       width="10.00051"
       height="0.27028406"
       x="15.573336"
       y="38.169083" />
    <rect
       style="fill:#000000;stroke:#000000;stroke-width:0.1;stroke-dasharray:none;stroke-opacity:1"
       id="rect9-2-0"
       width="10.00051"
       height="0.27028406"
       x="15.572032"
       y="40.46912" />
  </g>
</svg>
